<?xml version="1.0"?>
<svg xmlns="http://www.w3.org/2000/svg" viewBox="0 0 50 50">
    <path style="text-indent:0;text-align:start;line-height:normal;text-transform:none;block-progression:tb;-inkscape-font-specification:Sans" d="M 23 7 C 14.522616 7 8.8125 8 8.8125 8 A 1.0174263 1.0174263 0 1 0 9.1875 10 C 9.1875 10 9.943849 9.8912353 11 9.75 L 11 18 L 6 18 L 6 20 L 11 20 L 11 25.21875 C 9.9668796 25.115778 8.9437815 25.063576 7.96875 25.09375 C 6.4936274 25.139339 5.1794834 25.372089 4.28125 26.3125 C 3.2004691 27.444716 2.6817848 29.059472 2.375 30.78125 C 2.0682152 32.503028 2 34.355018 2 36 A 1.0001 1.0001 0 0 0 3 37 L 4.09375 37 C 4.0268448 37.324678 4 37.656303 4 38 C 4 40.749579 6.2504209 43 9 43 C 11.405882 43 13.437913 41.272748 13.90625 39 L 38.09375 39 C 38.562087 41.272748 40.594118 43 43 43 C 45.749579 43 48 40.749579 48 38 C 48 37.784528 47.964297 37.583498 47.9375 37.375 A 1.0001 1.0001 0 0 0 48 37 L 48 31 A 1.0001 1.0001 0 0 0 47.96875 30.75 C 47.407085 28.502657 45.165488 27.041016 43.1875 25.90625 C 41.543443 24.963059 40.232075 24.411013 39.75 24.21875 L 33.3125 9.53125 C 35.503465 9.7680237 36.8125 10 36.8125 10 A 1.0174263 1.0174263 0 1 0 37.1875 8 C 37.1875 8 31.477384 7 23 7 z M 23 9 C 26.135587 9 28.872541 9.1354491 31.0625 9.3125 A 1.0001 1.0001 0 0 0 31.09375 9.40625 L 37.90625 25 L 37.46875 26 L 30.4375 19 L 31.71875 17.71875 A 1.0001 1.0001 0 0 0 30.875 16 A 1.0001 1.0001 0 0 0 30.28125 16.28125 L 28.5 18.09375 A 1.0001 1.0001 0 0 0 28.0625 18.5 L 26.28125 20.28125 A 1.016466 1.016466 0 1 0 27.71875 21.71875 L 29 20.4375 L 36.59375 27.96875 L 34.34375 33 L 26 33 L 26 31.28125 C 26 30.062388 25.128405 29.112437 24.125 28.71875 C 22.207903 27.968099 20.100133 27.241637 17.9375 26.625 C 17.889732 26.469542 16.848285 23.078338 15.9375 20.65625 C 15.316455 19.005705 13.956078 18.36161 13 18.125 L 13 9.5 C 15.41197 9.2509718 18.856798 9 23 9 z M 13 20.28125 C 13.393276 20.459217 13.819691 20.698438 14.0625 21.34375 C 14.67868 22.982382 15.248666 24.792277 15.625 26 C 14.747341 25.794083 13.871106 25.64392 13 25.5 L 13 20.28125 z M 39.5 26.34375 C 40.058316 26.570491 40.805821 26.832335 42.1875 27.625 C 43.986167 28.65689 45.712605 30.174166 46 31.21875 L 46 34.03125 C 45.159224 33.390056 44.132511 33 43 33 C 40.594118 33 38.562087 34.727252 38.09375 37 L 13.90625 37 C 13.437913 34.727252 11.405882 33 9 33 C 7.375889 33 5.9148893 33.790574 5 35 L 4.0625 35 C 4.092651 33.698799 4.126746 32.342898 4.34375 31.125 C 4.6167152 29.593028 5.1185309 28.316284 5.71875 27.6875 C 5.9705166 27.423911 6.7883726 27.132161 8.03125 27.09375 C 12.603217 26.952261 18.637852 28.695404 23.40625 30.5625 C 23.814845 30.722813 24 30.984112 24 31.28125 L 24 34 A 1.0001 1.0001 0 0 0 25 35 L 35 35 A 1.0001 1.0001 0 0 0 35.90625 34.40625 L 39.5 26.34375 z M 9 35 C 10.668699 35 12 36.331301 12 38 C 12 39.668699 10.668699 41 9 41 C 7.3313011 41 6 39.668699 6 38 C 6 36.331301 7.3313011 35 9 35 z M 43 35 C 44.668699 35 46 36.331301 46 38 C 46 39.668699 44.668699 41 43 41 C 41.331301 41 40 39.668699 40 38 C 40 36.331301 41.331301 35 43 35 z"/>
</svg>
