<?xml version="1.0" standalone="no"?><!DOCTYPE svg PUBLIC "-//W3C//DTD SVG 1.1//EN" "http://www.w3.org/Graphics/SVG/1.1/DTD/svg11.dtd"><svg class="icon" height="512" viewBox="0 0 1024 1024" version="1.1" xmlns="http://www.w3.org/2000/svg"><path d="M511.774873 63.951521c-247.28092 0-447.752744 200.470801-447.752744 447.750697 0 247.294223 200.471824 447.764 447.752744 447.764s447.75172-200.470801 447.75172-447.764C959.526593 264.421298 759.055792 63.951521 511.774873 63.951521zM511.774873 926.517805c-229.082442 0-414.804331-185.720865-414.804331-414.815587 0-229.081419 185.720865-414.802284 414.804331-414.802284 229.081419 0 414.802284 185.720865 414.802284 414.802284C926.57818 740.79694 740.856291 926.517805 511.774873 926.517805z" fill="#3498DB" /><path d="M497.269507 464.571804l-0.874927 0c-0.385786 4.400217-1.261737 8.634658-2.625804 12.715603l-17.156752 52.460816 40.039925 0-17.065677-52.074006C498.492358 474.378148 497.720785 470.00249 497.269507 464.571804z" fill="#3498DB" /><path d="M637.686561 463.026612l-16.294105 0 0 43.243897 15.70161 0c7.502881 0 13.526061-2.187829 18.081821-6.537903 4.569062-4.375657 6.847965-9.806343 6.847965-16.34527C662.024875 469.809085 653.903917 463.026612 637.686561 463.026612z" fill="#3498DB" /><path d="M511.774873 154.430208c-197.304691 0-357.27201 159.967318-357.27201 357.27201s159.967318 357.285313 357.27201 357.285313S869.046882 709.006909 869.046882 511.702218 709.079564 154.430208 511.774873 154.430208zM290.337551 580.161403c-10.206456 7.554046-24.724101 11.338233-43.527352 11.338233-17.207917 0-31.30089-2.7793-42.279942-8.339946l0-32.098046c12.085246 10.038634 25.818015 15.032368 41.210587 15.032368 8.725732 0 15.277962-1.493004 19.679202-4.504594 4.402263-3.01159 6.590092-6.873548 6.590092-11.583826 0-4.066619-1.736551-7.928576-5.226025-11.531638-3.500731-3.629667-12.703323-8.546653-27.644617-14.749936-23.463388-9.960863-35.20071-24.428366-35.20071-43.438325 0-13.964036 5.328355-24.800849 15.95846-32.536021 10.630105-7.721869 24.711821-11.583826 42.227754-11.583826 14.672164 0 26.988678 1.904373 36.938284 5.727445l0 30.051433c-10.076496-6.860245-21.87931-10.282181-35.393091-10.282181-7.877411 0-14.184047 1.440815-18.907629 4.324492-4.710278 2.870374-7.078209 6.743588-7.078209 11.583826 0 3.886517 1.620917 7.451716 4.852518 10.707876 3.230578 3.26844 11.210319 7.684006 23.950482 13.243629 14.931061 6.395664 25.188682 13.152555 30.78719 20.271696 5.585205 7.103792 8.391111 15.572674 8.391111 25.405623C305.666678 561.613978 300.55731 572.60531 290.337551 580.161403zM391.667378 588.887135l-32.086789 0L359.580588 464.866517l-42.768059 0 0-26.178219 117.712959 0 0 26.178219-42.85811 0L391.667378 588.887135zM535.468504 588.887135l-11.248182-34.428114-54.596456 0-11.04352 34.428114-34.723849 0 54.983265-150.198837 37.618782 0 53.915957 150.198837L535.468504 588.887135zM676.465772 588.887135l-23.565718-39.07597c-4.839215-8.082072-8.816806-13.295817-11.918447-15.610536-3.102664-2.330068-6.408967-3.501754-9.897418-3.501754l-9.69071 0 0 58.18826-31.996738 0L589.396741 438.688297l52.653197 0c35.742039 0 53.619198 13.57825 53.619198 40.721447 0 10.219759-2.998287 18.9854-8.971325 26.282596-5.984295 7.297197-14.208607 12.44545-24.671912 15.405875l0 0.399089c6.91141 2.330068 14.56881 9.949606 22.973224 22.883173l28.315906 44.506656L676.465772 588.887135zM784.474718 464.866517l0 124.020618-32.086789 0L752.387929 464.866517l-42.768059 0 0-26.178219 117.712959 0 0 26.178219L784.474718 464.866517z" fill="#3498DB" /></svg>